<svg id="Camada_1" data-name="Camada 1" xmlns="http://www.w3.org/2000/svg" viewBox="0 0 100 135"><defs><style>.cls-1{fill:#f2c688;}.cls-2{fill:#dbab86;}.cls-3{fill:#f67280;}.cls-4{fill:#fff;}.cls-5{fill:#c06c84;}</style></defs><title>IMG-file</title><polygon class="cls-1" points="100 25 100 135 0 135 0 0 75 0 100 25"/><polygon class="cls-2" points="100 25 75 25 75 0 100 25"/><rect class="cls-3" y="57.5" width="100" height="20"/><path class="cls-4" d="M186.93,106.84h-2.38V92.65h2.38Z" transform="translate(-150 -32.5)"/><path class="cls-4" d="M199.73,92.65h2.69v14.19h-2.19V96l.1.63-3.1,8.43h-1.88l-3.1-8.24.09-.82v10.83h-2.18V92.65h2.69l3.44,9.47Z" transform="translate(-150 -32.5)"/><path class="cls-4" d="M215.64,99.05v2.63a6,6,0,0,1-.63,2.79,4.54,4.54,0,0,1-1.77,1.86,5.25,5.25,0,0,1-2.66.66,5.68,5.68,0,0,1-2.69-.62,4.46,4.46,0,0,1-1.8-1.75,5.23,5.23,0,0,1-.64-2.63V97.8a5.9,5.9,0,0,1,.63-2.78,4.5,4.5,0,0,1,1.78-1.86,5.22,5.22,0,0,1,2.66-.66,5.06,5.06,0,0,1,2.29.52,4.75,4.75,0,0,1,1.76,1.48,5.56,5.56,0,0,1,1,2.22H213a2.53,2.53,0,0,0-.54-1,2.56,2.56,0,0,0-.89-.64,2.79,2.79,0,0,0-1.06-.22,2.57,2.57,0,0,0-1.4.37,2.47,2.47,0,0,0-.94,1,3.5,3.5,0,0,0-.33,1.55V102a2.73,2.73,0,0,0,.34,1.39,2.27,2.27,0,0,0,1,.93,3,3,0,0,0,1.43.33,2.77,2.77,0,0,0,1.4-.35,2.33,2.33,0,0,0,.94-1,3.63,3.63,0,0,0,.32-1.57v-.43h-2.52V99.05Z" transform="translate(-150 -32.5)"/><rect class="cls-5" x="77.67" y="57.5" width="6" height="20"/><rect class="cls-5" x="87.5" y="57.5" width="3" height="20"/></svg>