<svg id="Camada_1" data-name="Camada 1" xmlns="http://www.w3.org/2000/svg" viewBox="0 0 100 135"><defs><style>.cls-1{fill:#f2c688;}.cls-2{fill:#dbab86;}.cls-3{fill:#9ade66;}.cls-4{fill:#fff;}.cls-5{fill:#617e4b;}</style></defs><title>XLSX-file</title><polygon class="cls-1" points="100 25 100 135 0 135 0 0 75 0 100 25"/><polygon class="cls-2" points="100 25 75 25 75 0 100 25"/><rect class="cls-3" y="57.5" width="100" height="20"/><path class="cls-4" d="M182.13,98.42l3.38-5.77H188l-4.7,7.85-3.71,6.34H177.1Zm0,2.4-.28-.48-4.66-7.69h2.53l3.3,5.58.35.58,4.86,8h-2.53Z" transform="translate(-150 -32.5)"/><path class="cls-4" d="M190.21,92.65h2.33v14.19h-2.33Zm1.09,12h8.23v2.23H191.3Z" transform="translate(-150 -32.5)"/><path class="cls-4" d="M204.62,107l-.94-.2a7.83,7.83,0,0,1-1.77-.59,6.54,6.54,0,0,1-1.5-1l1.24-1.86a5.79,5.79,0,0,0,1.84,1,6.44,6.44,0,0,0,2.16.35,4.13,4.13,0,0,0,2.21-.5,1.61,1.61,0,0,0,.79-1.44h0a1.52,1.52,0,0,0-.35-1,2.15,2.15,0,0,0-.92-.57,10.87,10.87,0,0,0-1.46-.33h-.11l-.18,0a13.93,13.93,0,0,1-2.34-.56,3.34,3.34,0,0,1-1.57-1.15,3.75,3.75,0,0,1-.64-2.35h0a4.27,4.27,0,0,1,.6-2.31A3.79,3.79,0,0,1,203.44,93a7,7,0,0,1,2.78-.5,7.23,7.23,0,0,1,1.52.17,7.43,7.43,0,0,1,1.51.5,8.86,8.86,0,0,1,1.43.81l-1.13,1.93a7,7,0,0,0-1.67-.89,5,5,0,0,0-1.66-.3,3.73,3.73,0,0,0-2.09.49,1.58,1.58,0,0,0-.74,1.39h0a1.46,1.46,0,0,0,.38,1.06,2.24,2.24,0,0,0,1,.58,14.59,14.59,0,0,0,1.59.38l.08,0h.07l.11,0,.1,0a12.76,12.76,0,0,1,2.21.63,3.5,3.5,0,0,1,1.48,1.2,3.76,3.76,0,0,1,.59,2.23v0a4.09,4.09,0,0,1-.62,2.28,4,4,0,0,1-1.82,1.44,7.46,7.46,0,0,1-2.87.49Z" transform="translate(-150 -32.5)"/><path class="cls-4" d="M216.77,98.42l3.38-5.77h2.53L218,100.5l-3.71,6.34h-2.53Zm0,2.4-.28-.48-4.66-7.69h2.53l3.3,5.58.35.58,4.86,8h-2.53Z" transform="translate(-150 -32.5)"/><rect class="cls-5" x="77.67" y="57.5" width="6" height="20"/><rect class="cls-5" x="87.5" y="57.5" width="3" height="20"/></svg>